<svg
  aria-hidden="true"
  style="position:absolute;width:0;height:0"
  xmlns="http://www.w3.org/2000/svg"
  overflow="hidden"
><defs>
<symbol id="moon" viewBox="0 0 32 32"><path
        fill="currentColor"
        d="M17.701 32a15.97 15.97 0 0012.429-5.925c.442-.544-.04-1.339-.723-1.209-7.763 1.478-14.891-4.474-14.891-12.31 0-4.514 2.416-8.665 6.344-10.9.605-.345.453-1.262-.235-1.389-.879-.17-1.89-.267-2.923-.268-8.832 0-16 7.157-16 16 0 8.832 7.157 16 16 16z"
      /></symbol>
      <symbol id="sun" viewBox="0 0 32 32"><path
        fill="currentColor"
        d="M16 10c-3.306 0-6 2.694-6 6s2.694 6 6 6 6-2.694 6-6-2.694-6-6-6zm15.4 5.031l-5.919-2.956L27.575 5.8c.281-.85-.525-1.656-1.369-1.369l-6.275 2.094L16.969.6c-.4-.8-1.537-.8-1.938 0l-2.956 5.919-6.281-2.094c-.85-.281-1.656.525-1.369 1.369l2.094 6.275L.6 15.032c-.8.4-.8 1.538 0 1.938l5.919 2.956-2.094 6.281c-.281.85.525 1.656 1.369 1.369l6.275-2.094 2.956 5.919c.4.8 1.538.8 1.938 0l2.956-5.919 6.275 2.094c.85.281 1.656-.525 1.369-1.369l-2.094-6.275 5.919-2.956c.813-.406.813-1.544.012-1.944zm-9.744 6.625c-3.119 3.119-8.194 3.119-11.313 0s-3.119-8.194 0-11.313c3.119-3.119 8.194-3.119 11.313 0s3.119 8.194 0 11.313z"
      /></symbol>
      <symbol id="logo" viewBox="0 0 32 32">
<path
        fill="currentColor"
        d="M28 8.333c0-2.393-1.94-4.333-4.333-4.333h-15.333c-2.393 0-4.333 1.94-4.333 4.333v6.010c0.595-0.491 1.269-0.891 2-1.176v-4.833c0-1.289 1.045-2.333 2.333-2.333h15.333c1.289 0 2.333 1.045 2.333 2.333v15.333c0 0.278-0.049 0.545-0.138 0.793l-7.763-7.602-0.171-0.155c-0.849-0.713-1.999-0.882-2.991-0.507 0.345 0.568 0.616 1.186 0.797 1.842 0.332-0.091 0.702-0.008 0.965 0.25l7.741 7.582c-0.242 0.085-0.503 0.131-0.774 0.131h-6.367l0.683 0.683c0.371 0.371 0.591 0.835 0.66 1.317h5.024c2.393 0 4.333-1.94 4.333-4.333v-15.333z"
      />
<path
        fill="currentColor"
        d="M23.339 11.669c0-1.658-1.344-3.003-3.003-3.003s-3.003 1.344-3.003 3.003c0 1.658 1.344 3.003 3.003 3.003s3.003-1.344 3.003-3.003zM19.333 11.669c0-0.554 0.449-1.003 1.003-1.003s1.003 0.449 1.003 1.003c0 0.554-0.449 1.003-1.003 1.003s-1.003-0.449-1.003-1.003z"
      />
<path
        fill="currentColor"
        d="M13.267 23.853c0.874-1.042 1.4-2.386 1.4-3.853 0-3.314-2.686-6-6-6s-6 2.686-6 6c0 3.314 2.686 6 6 6 1.123 0 2.174-0.309 3.073-0.846l3.886 3.886c0.391 0.391 1.024 0.391 1.414 0s0.391-1.024 0-1.414l-3.774-3.774zM8.667 24c-2.209 0-4-1.791-4-4s1.791-4 4-4c2.209 0 4 1.791 4 4s-1.791 4-4 4z"
      />
</symbol>
<symbol id="arrow_up" viewBox="0 0 32 32">
<path
        d="M18 29h-4c-1.1 0-2-0.9-2-2v-12h-3.6c-0.8 0-1.5-0.5-1.8-1.2s-0.2-1.6 0.4-2.2l8.3-8.3c0.4-0.4 1-0.4 1.4 0l8.3 8.3c0.6 0.6 0.7 1.4 0.4 2.2s-1 1.2-1.8 1.2h-3.6v12c0 1.1-0.9 2-2 2z"
      />
</symbol>
<symbol id="search" viewBox="0 0 32 32">
<path
        d="M21.531 18.625c0.938-1.475 1.488-3.225 1.488-5.106 0-5.256-4.256-9.519-9.506-9.519-5.256 0-9.512 4.262-9.512 9.519s4.256 9.519 9.506 9.519c1.906 0 3.681-0.563 5.169-1.525l0.431-0.3 6.787 6.787 2.106-2.144-6.781-6.787 0.313-0.444zM18.837 8.2c1.419 1.419 2.2 3.306 2.2 5.313s-0.781 3.894-2.2 5.313c-1.419 1.419-3.306 2.2-5.313 2.2s-3.894-0.781-5.313-2.2c-1.419-1.419-2.2-3.306-2.2-5.313s0.781-3.894 2.2-5.313c1.419-1.419 3.306-2.2 5.313-2.2s3.894 0.781 5.313 2.2z"
      />
</symbol>
<symbol id="clear" viewBox="0 0 32 32">
<path
        d="M29.937 2.564c0.39 0.391 0.39 1.024 0 1.414l-9.238 9.238c2.313 3.006 2.093 7.335-0.661 10.089l-1.109 1.109-3.716 5.574c-0.166 0.249-0.435 0.411-0.733 0.441s-0.594-0.076-0.806-0.288l-11.314-11.314c-0.212-0.212-0.318-0.508-0.288-0.806s0.191-0.567 0.44-0.733l5.575-3.716 1.108-1.108c2.754-2.754 7.083-2.975 10.089-0.661l9.238-9.238c0.391-0.391 1.024-0.391 1.414 0zM10.137 14.349l8.014 8.014 0.471-0.471c2.213-2.213 2.213-5.801 0-8.014s-5.801-2.213-8.014 0l-0.471 0.471zM8.596 15.636l-3.96 2.64 9.589 9.589 2.64-3.96-8.269-8.269z"
      />
</symbol>
</defs>
</svg>
